<svg viewBox="0 0 95.481 87.8759455905834" height="87.8759455905834" width="95.481" data-background-color="#252525" preserveAspectRatio="xMidYMid meet" id="tight-bounds" xmlns="http://www.w3.org/2000/svg" xmlns:xlink="http://www.w3.org/1999/xlink"><g><svg viewBox="0 0 95.481 87.8759455905834" height="87.8759455905834" width="95.481"><g><svg viewBox="0 0 95.481 87.8759455905834" height="87.8759455905834" width="95.481"><g id="textblocktransform"><svg viewBox="0 0 95.481 87.8759455905834" height="87.8759455905834" width="95.481" id="textblock"><g><svg viewBox="0 0 95.481 87.8759455905834" height="87.8759455905834" width="95.481"><g><svg viewBox="0 0 95.481 87.8759455905834" height="87.8759455905834" width="95.481"><g><svg xmlns="http://www.w3.org/2000/svg" xmlns:xlink="http://www.w3.org/1999/xlink" version="1.1" x="0" y="0" viewBox="7.261847019195557 10.2673921585083 75.47628784179688 69.46460723876953" enable-background="new 0 0 90 90" xml:space="preserve" height="87.8759455905834" width="95.481" class="icon-icon-0" data-fill-palette-color="accent" id="icon-0"/></g></svg></g></svg></g></svg></g></svg></g><g/></svg><mask id="f160d495-ad79-4851-88f7-9b6f44454d58"><svg viewBox="0 0 95.481 87.8759455905834" height="87.8759455905834" width="95.481" data-background-color="#252525" preserveAspectRatio="xMidYMid meet" id="SvgjsSvg2151" xmlns:xlink="http://www.w3.org/1999/xlink"><g><svg viewBox="0 0 95.481 87.8759455905834" height="87.8759455905834" width="95.481"><g><svg viewBox="0 0 95.481 87.8759455905834" height="87.8759455905834" width="95.481"><g id="SvgjsG2150"><svg viewBox="0 0 95.481 87.8759455905834" height="87.8759455905834" width="95.481" id="SvgjsSvg2149"><g><svg viewBox="0 0 95.481 87.8759455905834" height="87.8759455905834" width="95.481"><g><svg viewBox="0 0 95.481 87.8759455905834" height="87.8759455905834" width="95.481"><g><svg xmlns="http://www.w3.org/2000/svg" xmlns:xlink="http://www.w3.org/1999/xlink" version="1.1" x="0" y="0" viewBox="7.261847019195557 10.2673921585083 75.47628784179688 69.46460723876953" enable-background="new 0 0 90 90" xml:space="preserve" height="87.8759455905834" width="95.481" class="icon-icon-0" data-fill-palette-color="accent" id="SvgjsSvg2148"><g fill="white"><g fill="white"><path d="M18.757 62.107l27.438 5.619c0.062 0.013 0.125 0.019 0.188 0.019 0.214 0 0.424-0.073 0.592-0.211 0.219-0.178 0.345-0.444 0.345-0.726V11.204c0-0.428-0.29-0.801-0.704-0.907-0.412-0.107-0.847 0.083-1.054 0.457L18.123 60.739C17.98 61 17.97 61.313 18.095 61.583 18.22 61.853 18.465 62.048 18.757 62.107z" fill="white"/><path d="M51.108 67.746c0.085 0 0.17-0.012 0.254-0.035l19.947-5.619c0.263-0.074 0.479-0.258 0.595-0.505 0.115-0.247 0.117-0.532 0.006-0.781L51.963 16.438c-0.181-0.402-0.619-0.624-1.051-0.531-0.432 0.092-0.74 0.474-0.74 0.916v49.986c0 0.293 0.138 0.57 0.371 0.747C50.708 67.68 50.906 67.746 51.108 67.746z" fill="white"/><path d="M82.68 71.654c-0.134-0.358-0.472-0.6-0.854-0.609L8.222 69.171c-0.436-0.018-0.809 0.27-0.925 0.681-0.116 0.412 0.062 0.851 0.432 1.065l14.984 8.689c0.143 0.083 0.305 0.126 0.47 0.126h51.125c0.233 0 0.458-0.087 0.63-0.244l7.494-6.816C82.715 72.416 82.812 72.012 82.68 71.654z" fill="white"/></g></g></svg></g></svg></g></svg></g></svg></g></svg></g><g/></svg></g><defs><mask/></defs></svg></mask><linearGradient x1="0" x2="1" y1="0.5" y2="0.5" id="d7222ad0-b699-404b-9517-aac4b85ae5cc"><stop stop-color="#ffa62e" offset="0"/><stop stop-color="#f71b3d" offset="1"/></linearGradient><rect width="95.481" height="87.8759455905834" fill="url(#d7222ad0-b699-404b-9517-aac4b85ae5cc)" mask="url(#f160d495-ad79-4851-88f7-9b6f44454d58)" data-fill-palette-color="accent"/></g><defs><mask/></defs></svg>