<svg viewBox="0 0 360.386460521834 247.2" height="247.2" width="360.386460521834" data-background-color="#252525" preserveAspectRatio="xMidYMid meet" id="tight-bounds" xmlns="http://www.w3.org/2000/svg" xmlns:xlink="http://www.w3.org/1999/xlink"><g><svg viewBox="0 0 397.4975999999999 272.6556557583184" height="247.2" width="360.386460521834"><g></g><g transform="matrix(1,0,0,1,0.9887999999999693,180.05211777704892)"><svg viewBox="0 0 395.52 92.60353798126951" height="92.60353798126951" width="395.52"><g id="textblocktransform"><svg viewBox="0 0 395.52 92.60353798126951" height="92.60353798126951" width="395.52" id="textblock"><g><svg viewBox="0 0 395.52 92.60353798126951" height="92.60353798126951" width="395.52"><g transform="matrix(1,0,0,1,0,0)"><svg width="395.52" viewBox="2.1500000953674316 -33.25 144.13999938964844 33.75" height="92.60353798126951" data-palette-color="#f5793b"><path d="M10.2 0L2.15-32.75 5.1-32.75 12.35-2.45 12.85-2.45 20.05-32.75 22.95-32.75 14.9 0 10.2 0ZM27-16.7L27-16.7Q27-20.6 27.5-23.45L27.5-23.45Q28-26.3 29.1-28.6L29.1-28.6Q31.35-33.25 37.5-33.25L37.5-33.25Q44.5-33.2 46.7-26.7L46.7-26.7Q48-22.95 48-17.88 48-12.8 47.5-9.8 47-6.8 45.9-4.4L45.9-4.4Q43.6 0.5 37.5 0.5L37.5 0.5Q31.5 0.5 29.15-4.4L29.15-4.4Q27-8.85 27-16.7ZM45.05-16.3L45.05-16.3Q45.05-19 44.92-20.65 44.8-22.3 44.35-24.3 43.9-26.3 43.12-27.6 42.35-28.9 40.92-29.78 39.5-30.65 37.5-30.65 35.5-30.65 34.07-29.78 32.65-28.9 31.87-27.6 31.1-26.3 30.65-24.3L30.65-24.3Q29.95-21.2 29.95-17.43 29.95-13.65 30.22-11.33 30.5-9 31.25-6.75L31.25-6.75Q32.8-2.1 37.5-2.1L37.5-2.1Q42.3-2.1 43.8-6.8L43.8-6.8Q45.1-10.8 45.05-16.3ZM73.45-32.75L63.8-14.15 63.8 0 61.1 0 61.1-14.15 51.45-32.75 54.75-32.75 62.4-17 62.5-17 70.15-32.75 73.45-32.75ZM78.74 0L75.84 0 85.24-32.75 90.04-32.75 99.09 0 96.14 0 94.09-7.55 80.84-7.55 78.74 0ZM81.54-10.05L93.44-10.05 88.04-30.25 87.19-30.25 81.54-10.05ZM113.29 0.5Q107.49 0.5 104.69-3.5 101.89-7.5 101.89-16.38 101.89-25.25 104.64-29.25 107.39-33.25 113.59-33.25L113.59-33.25Q117.64-33.25 122.09-31.65L122.09-31.65 121.39-29.1Q116.84-30.65 113.59-30.65L113.59-30.65Q108.89-30.65 106.87-27.33 104.84-24 104.84-16.48 104.84-8.95 106.94-5.53 109.04-2.1 113.29-2.1L113.29-2.1Q115.84-2.1 119.44-3.3L119.44-3.3 119.44-13.3 113.79-13.3 113.79-15.75 122.19-15.75 122.19-1.35Q117.04 0.5 113.29 0.5L113.29 0.5ZM146.29 0L129.09 0 129.09-32.75 146.14-32.75 146.14-30.3 131.84-30.3 131.84-17.9 144.79-17.9 144.79-15.45 131.84-15.45 131.84-2.45 146.29-2.45 146.29 0Z" opacity="1" transform="matrix(1,0,0,1,0,0)" fill="#f5793b" class="wordmark-text-0" data-fill-palette-color="primary" id="text-0"></path></svg></g></svg></g></svg></g></svg></g><g transform="matrix(1,0,0,1,121.22194665871977,0)"><svg viewBox="0 0 155.05370668256037 127.97808949011447" height="127.97808949011447" width="155.05370668256037"><g><svg xmlns="http://www.w3.org/2000/svg" xmlns:xlink="http://www.w3.org/1999/xlink" version="1.1" x="8" y="0" viewBox="7.261847019195557 10.2673921585083 75.47628784179688 69.46460723876953" enable-background="new 0 0 90 90" xml:space="preserve" height="127.97808949011447" width="139.05370668256037" class="icon-icon-0" data-fill-palette-color="accent" id="icon-0"></svg></g></svg></g><g></g></svg><mask id="7c0d1e43-a98d-448c-90ef-fb12f0500c27"><svg viewBox="0 0 360.386460521834 247.2" height="247.2" width="360.386460521834" data-background-color="#252525" preserveAspectRatio="xMidYMid meet" id="SvgjsSvg2122" xmlns:xlink="http://www.w3.org/1999/xlink"><g><svg viewBox="0 0 397.4975999999999 272.6556557583184" height="247.2" width="360.386460521834"><g><rect width="397.4975999999999" height="8.351082622002082" x="0" y="149.83956232258066" fill="white" opacity="1" stroke-width="0" stroke="transparent" fill-opacity="1" class="rect-o-0" rx="1%" id="SvgjsRect2121" data-palette-color="url(#8b898945-6d40-46c5-9a0e-0d51b1b1ad00)"></rect></g><g transform="matrix(1,0,0,1,0.9887999999999693,180.05211777704892)"><svg viewBox="0 0 395.52 92.60353798126951" height="92.60353798126951" width="395.52"><g id="SvgjsG2120"><svg viewBox="0 0 395.52 92.60353798126951" height="92.60353798126951" width="395.52" id="SvgjsSvg2119"><g><svg viewBox="0 0 395.52 92.60353798126951" height="92.60353798126951" width="395.52"><g transform="matrix(1,0,0,1,0,0)"><svg width="395.52" viewBox="2.1500000953674316 -33.25 144.13999938964844 33.75" height="92.60353798126951" data-palette-color="#f5793b"></svg></g></svg></g></svg></g></svg></g><g transform="matrix(1,0,0,1,121.22194665871977,0)"><svg viewBox="0 0 155.05370668256037 127.97808949011447" height="127.97808949011447" width="155.05370668256037"><g><svg xmlns="http://www.w3.org/2000/svg" xmlns:xlink="http://www.w3.org/1999/xlink" version="1.1" x="8" y="0" viewBox="7.261847019195557 10.2673921585083 75.47628784179688 69.46460723876953" enable-background="new 0 0 90 90" xml:space="preserve" height="127.97808949011447" width="139.05370668256037" class="icon-icon-0" data-fill-palette-color="accent" id="SvgjsSvg2117"></svg></g></svg></g><g><rect width="33.83256295996652" height="8.351082622002082" y="118.62700686811239" x="276.27565334128013" fill="white"></rect><rect width="33.83256295996652" height="8.351082622002082" y="118.62700686811239" x="87.38938369875325" fill="white"></rect></g></svg></g><defs><mask></mask></defs></svg></mask><linearGradient x1="0" x2="1" y1="0.5" y2="0.5" id="8b898945-6d40-46c5-9a0e-0d51b1b1ad00"><stop stop-color="#ffa62e" offset="0"></stop><stop stop-color="#f71b3d" offset="1"></stop></linearGradient><rect width="360.386460521834" height="247.2" fill="url(#8b898945-6d40-46c5-9a0e-0d51b1b1ad00)" mask="url(#7c0d1e43-a98d-448c-90ef-fb12f0500c27)" data-fill-palette-color="secondary"></rect><mask id="11ef734c-2343-4cc8-97cc-c8c4d9563448"><svg viewBox="0 0 360.386460521834 247.2" height="247.2" width="360.386460521834" data-background-color="#252525" preserveAspectRatio="xMidYMid meet" id="SvgjsSvg2132" xmlns:xlink="http://www.w3.org/1999/xlink"><g><svg viewBox="0 0 397.4975999999999 272.6556557583184" height="247.2" width="360.386460521834"><g></g><g transform="matrix(1,0,0,1,0.9887999999999693,180.05211777704892)"><svg viewBox="0 0 395.52 92.60353798126951" height="92.60353798126951" width="395.52"><g id="SvgjsG2131"><svg viewBox="0 0 395.52 92.60353798126951" height="92.60353798126951" width="395.52" id="SvgjsSvg2130"><g><svg viewBox="0 0 395.52 92.60353798126951" height="92.60353798126951" width="395.52"><g transform="matrix(1,0,0,1,0,0)"><svg width="395.52" viewBox="2.1500000953674316 -33.25 144.13999938964844 33.75" height="92.60353798126951" data-palette-color="#f5793b"></svg></g></svg></g></svg></g></svg></g><g transform="matrix(1,0,0,1,121.22194665871977,0)"><svg viewBox="0 0 155.05370668256037 127.97808949011447" height="127.97808949011447" width="155.05370668256037"><g><svg xmlns="http://www.w3.org/2000/svg" xmlns:xlink="http://www.w3.org/1999/xlink" version="1.1" x="8" y="0" viewBox="7.261847019195557 10.2673921585083 75.47628784179688 69.46460723876953" enable-background="new 0 0 90 90" xml:space="preserve" height="127.97808949011447" width="139.05370668256037" class="icon-icon-0" data-fill-palette-color="accent" id="SvgjsSvg2128"><g fill="white"><g fill="white"><path d="M18.757 62.107l27.438 5.619c0.062 0.013 0.125 0.019 0.188 0.019 0.214 0 0.424-0.073 0.592-0.211 0.219-0.178 0.345-0.444 0.345-0.726V11.204c0-0.428-0.29-0.801-0.704-0.907-0.412-0.107-0.847 0.083-1.054 0.457L18.123 60.739C17.98 61 17.97 61.313 18.095 61.583 18.22 61.853 18.465 62.048 18.757 62.107z" fill="white"></path><path d="M51.108 67.746c0.085 0 0.17-0.012 0.254-0.035l19.947-5.619c0.263-0.074 0.479-0.258 0.595-0.505 0.115-0.247 0.117-0.532 0.006-0.781L51.963 16.438c-0.181-0.402-0.619-0.624-1.051-0.531-0.432 0.092-0.74 0.474-0.74 0.916v49.986c0 0.293 0.138 0.57 0.371 0.747C50.708 67.68 50.906 67.746 51.108 67.746z" fill="white"></path><path d="M82.68 71.654c-0.134-0.358-0.472-0.6-0.854-0.609L8.222 69.171c-0.436-0.018-0.809 0.27-0.925 0.681-0.116 0.412 0.062 0.851 0.432 1.065l14.984 8.689c0.143 0.083 0.305 0.126 0.47 0.126h51.125c0.233 0 0.458-0.087 0.63-0.244l7.494-6.816C82.715 72.416 82.812 72.012 82.68 71.654z" fill="white"></path></g></g></svg></g></svg></g><g></g></svg><mask><svg viewBox="0 0 360.386460521834 247.2" height="247.2" width="360.386460521834" data-background-color="#252525" preserveAspectRatio="xMidYMid meet" id="SvgjsSvg2127" xmlns:xlink="http://www.w3.org/1999/xlink"><g><svg viewBox="0 0 397.4975999999999 272.6556557583184" height="247.2" width="360.386460521834"><g></g><g transform="matrix(1,0,0,1,0.9887999999999693,180.05211777704892)"><svg viewBox="0 0 395.52 92.60353798126951" height="92.60353798126951" width="395.52"><g id="SvgjsG2125"><svg viewBox="0 0 395.52 92.60353798126951" height="92.60353798126951" width="395.52" id="SvgjsSvg2124"><g><svg viewBox="0 0 395.52 92.60353798126951" height="92.60353798126951" width="395.52"><g transform="matrix(1,0,0,1,0,0)"><svg width="395.52" viewBox="2.1500000953674316 -33.25 144.13999938964844 33.75" height="92.60353798126951" data-palette-color="#f5793b"></svg></g></svg></g></svg></g></svg></g><g transform="matrix(1,0,0,1,121.22194665871977,0)"><svg viewBox="0 0 155.05370668256037 127.97808949011447" height="127.97808949011447" width="155.05370668256037"><g><svg xmlns="http://www.w3.org/2000/svg" xmlns:xlink="http://www.w3.org/1999/xlink" version="1.1" x="8" y="0" viewBox="7.261847019195557 10.2673921585083 75.47628784179688 69.46460723876953" enable-background="new 0 0 90 90" xml:space="preserve" height="127.97808949011447" width="139.05370668256037" class="icon-icon-0" data-fill-palette-color="accent" id="SvgjsSvg2123"></svg></g></svg></g><g></g></svg></g><defs><mask></mask></defs></svg></mask></g><defs><mask></mask></defs></svg></mask><linearGradient x1="0" x2="1" y1="0.5" y2="0.5" id="9c6f8f4a-26e9-4722-8309-c27c48edbba6"><stop stop-color="#ffa62e" offset="0"></stop><stop stop-color="#f71b3d" offset="1"></stop></linearGradient><rect width="360.386460521834" height="247.2" fill="url(#9c6f8f4a-26e9-4722-8309-c27c48edbba6)" mask="url(#11ef734c-2343-4cc8-97cc-c8c4d9563448)" data-fill-palette-color="accent"></rect></g><defs><mask></mask></defs></svg>