<svg xmlns="http://www.w3.org/2000/svg" version="1.1" xmlns:xlink="http://www.w3.org/1999/xlink" xmlns:svgjs="http://svgjs.dev/svgjs" width="1000" height="984" viewBox="0 0 1000 984"><g transform="matrix(1,0,0,1,0.11392618385463038,0.39838056680162026)"><svg viewBox="0 0 251 247" data-background-color="#252525" preserveAspectRatio="xMidYMid meet" height="984" width="1000" xmlns="http://www.w3.org/2000/svg" xmlns:xlink="http://www.w3.org/1999/xlink"><g id="tight-bounds" transform="matrix(1,0,0,1,-0.02859547214751501,-0.09999999999999432)"><svg viewBox="0 0 251.057190944295 247.2" height="247.2" width="251.057190944295"><g><svg viewBox="0 0 397.4975999999999 391.39052878912514" height="247.2" width="251.057190944295"><g></g><g transform="matrix(1,0,0,1,0.9887999999999693,248.94027668912904)"><svg viewBox="0 0 395.52 142.45025209999608" height="142.45025209999608" width="395.52"><g id="textblocktransform"><svg viewBox="0 0 395.52 142.45025209999608" height="142.45025209999608" width="395.52" id="textblock"><g><svg viewBox="0 0 395.52 92.60353798126951" height="92.60353798126951" width="395.52"><g transform="matrix(1,0,0,1,0,0)"><svg width="395.52" viewBox="2.1500000953674316 -33.25 144.13999938964844 33.75" height="92.60353798126951" data-palette-color="#f5793b"><path d="M10.2 0L2.15-32.75 5.1-32.75 12.35-2.45 12.85-2.45 20.05-32.75 22.95-32.75 14.9 0 10.2 0ZM27-16.7L27-16.7Q27-20.6 27.5-23.45L27.5-23.45Q28-26.3 29.1-28.6L29.1-28.6Q31.35-33.25 37.5-33.25L37.5-33.25Q44.5-33.2 46.7-26.7L46.7-26.7Q48-22.95 48-17.88 48-12.8 47.5-9.8 47-6.8 45.9-4.4L45.9-4.4Q43.6 0.5 37.5 0.5L37.5 0.5Q31.5 0.5 29.15-4.4L29.15-4.4Q27-8.85 27-16.7ZM45.05-16.3L45.05-16.3Q45.05-19 44.92-20.65 44.8-22.3 44.35-24.3 43.9-26.3 43.12-27.6 42.35-28.9 40.92-29.78 39.5-30.65 37.5-30.65 35.5-30.65 34.07-29.78 32.65-28.9 31.87-27.6 31.1-26.3 30.65-24.3L30.65-24.3Q29.95-21.2 29.95-17.43 29.95-13.65 30.22-11.33 30.5-9 31.25-6.75L31.25-6.75Q32.8-2.1 37.5-2.1L37.5-2.1Q42.3-2.1 43.8-6.8L43.8-6.8Q45.1-10.8 45.05-16.3ZM73.45-32.75L63.8-14.15 63.8 0 61.1 0 61.1-14.15 51.45-32.75 54.75-32.75 62.4-17 62.5-17 70.15-32.75 73.45-32.75ZM78.74 0L75.84 0 85.24-32.75 90.04-32.75 99.09 0 96.14 0 94.09-7.55 80.84-7.55 78.74 0ZM81.54-10.05L93.44-10.05 88.04-30.25 87.19-30.25 81.54-10.05ZM113.29 0.5Q107.49 0.5 104.69-3.5 101.89-7.5 101.89-16.38 101.89-25.25 104.64-29.25 107.39-33.25 113.59-33.25L113.59-33.25Q117.64-33.25 122.09-31.65L122.09-31.65 121.39-29.1Q116.84-30.65 113.59-30.65L113.59-30.65Q108.89-30.65 106.87-27.33 104.84-24 104.84-16.48 104.84-8.95 106.94-5.53 109.04-2.1 113.29-2.1L113.29-2.1Q115.84-2.1 119.44-3.3L119.44-3.3 119.44-13.3 113.79-13.3 113.79-15.75 122.19-15.75 122.19-1.35Q117.04 0.5 113.29 0.5L113.29 0.5ZM146.29 0L129.09 0 129.09-32.75 146.14-32.75 146.14-30.3 131.84-30.3 131.84-17.9 144.79-17.9 144.79-15.45 131.84-15.45 131.84-2.45 146.29-2.45 146.29 0Z" opacity="1" transform="matrix(1,0,0,1,0,0)" fill="#f5793b" class="wordmark-text-0" data-fill-palette-color="primary" id="text-0"></path></svg></g></svg></g><g transform="matrix(1,0,0,1,0,114.46501081373569)"><svg viewBox="0 0 395.52 27.985241286260404" height="27.985241286260404" width="395.52"><g transform="matrix(1,0,0,1,0,0)"><svg width="395.52" viewBox="5 -39.04999923706055 717.1880493164062 50.75" height="27.985241286260404" data-palette-color="url(#3c6a9940-7089-4047-b531-b0b25b1dceb2)"></svg></g></svg></g></svg></g></svg></g><g transform="matrix(1,0,0,1,83.79697070609028,0)"><svg viewBox="0 0 229.90365858781936 196.8662484021946" height="196.8662484021946" width="229.90365858781936"><g><svg xmlns="http://www.w3.org/2000/svg" xmlns:xlink="http://www.w3.org/1999/xlink" version="1.1" x="8" y="0" viewBox="7.261847019195557 10.2673921585083 75.47628784179688 69.46460723876953" enable-background="new 0 0 90 90" xml:space="preserve" height="196.8662484021946" width="213.90365858781936" class="icon-icon-0" data-fill-palette-color="accent" id="icon-0"></svg></g></svg></g><g></g></svg></g><defs></defs><mask id="7dd348d9-d333-410d-87e2-64f31eb6f847"><g id="SvgjsG1813"><svg viewBox="0 0 251.057190944295 247.2" height="247.2" width="251.057190944295"><g><svg viewBox="0 0 397.4975999999999 391.39052878912514" height="247.2" width="251.057190944295"><g><rect width="397.4975999999999" height="8.351082622002082" x="0" y="218.72772123466078" fill="white" opacity="1" stroke-width="0" stroke="transparent" fill-opacity="1" class="rect-o-0" rx="1%" id="SvgjsRect1812" data-palette-color="url(#3c6a9940-7089-4047-b531-b0b25b1dceb2)"></rect></g><g transform="matrix(1,0,0,1,0.9887999999999693,248.94027668912904)"><svg viewBox="0 0 395.52 142.45025209999608" height="142.45025209999608" width="395.52"><g id="SvgjsG1811"><svg viewBox="0 0 395.52 142.45025209999608" height="142.45025209999608" width="395.52" id="SvgjsSvg1810"><g><svg viewBox="0 0 395.52 92.60353798126951" height="92.60353798126951" width="395.52"><g transform="matrix(1,0,0,1,0,0)"><svg width="395.52" viewBox="2.1500000953674316 -33.25 144.13999938964844 33.75" height="92.60353798126951" data-palette-color="#f5793b"></svg></g></svg></g><g transform="matrix(1,0,0,1,0,114.46501081373569)"><svg viewBox="0 0 395.52 27.985241286260404" height="27.985241286260404" width="395.52"><g transform="matrix(1,0,0,1,0,0)"><svg width="395.52" viewBox="5 -39.04999923706055 717.1880493164062 50.75" height="27.985241286260404" data-palette-color="url(#3c6a9940-7089-4047-b531-b0b25b1dceb2)"><path d="M30.4 0L6.95 0Q6.1 0 5.55-0.55 5-1.1 5-1.95L5-1.95 5-37.1Q5-37.95 5.55-38.5 6.1-39.05 6.95-39.05L6.95-39.05 30.4-39.05Q31.2-39.05 31.78-38.53 32.35-38 32.35-37.15L32.35-37.15Q32.35-36.4 31.78-35.85 31.2-35.3 30.4-35.3L30.4-35.3 8.9-35.3 8.9-21.5 24.55-21.5Q25.4-21.5 25.95-20.95 26.5-20.4 26.5-19.6L26.5-19.6Q26.5-18.8 25.95-18.25 25.4-17.7 24.55-17.7L24.55-17.7 8.9-17.7 8.9-3.75 30.4-3.75Q31.2-3.75 31.78-3.2 32.35-2.65 32.35-1.9L32.35-1.9Q32.35-1.05 31.78-0.53 31.2 0 30.4 0L30.4 0ZM56.7 0L56.7 0Q56.1 0 55.72-0.2 55.35-0.4 54.95-0.9L54.95-0.9 46.3-11.9 44.8-13.2 36.1-24.25Q35.55-24.9 35.57-25.6 35.6-26.3 36.05-26.83 36.5-27.35 37.35-27.35L37.35-27.35Q38.2-27.35 38.8-26.75L38.8-26.75 47.2-16 48.55-14.9 57.85-3Q58.5-2.2 58.4-1.5 58.3-0.8 57.77-0.4 57.25 0 56.7 0ZM36.9 0L36.9 0Q36.1 0 35.62-0.5 35.15-1 35.12-1.7 35.1-2.4 35.65-3.05L35.65-3.05 44.85-14.55 47-11.7 38.25-0.6Q37.8 0 36.9 0ZM57.65-24.2L48.6-13 46.15-15.5 54.8-26.45Q55.15-26.95 55.57-27.15 56-27.35 56.45-27.35L56.45-27.35Q57.3-27.35 57.75-26.83 58.2-26.3 58.17-25.58 58.15-24.85 57.65-24.2L57.65-24.2ZM66.95 11.7L66.95 11.7Q66.05 11.7 65.52 11.18 65 10.65 65 9.75L65 9.75 65-13.85Q65.05-17.75 66.87-20.88 68.7-24 71.82-25.8 74.95-27.6 78.84-27.6L78.84-27.6Q82.84-27.6 86-25.78 89.15-23.95 90.97-20.8 92.8-17.65 92.8-13.65L92.8-13.65Q92.8-9.7 91.02-6.55 89.25-3.4 86.2-1.58 83.15 0.25 79.3 0.25L79.3 0.25Q75.95 0.25 73.22-1.18 70.5-2.6 68.84-4.95L68.84-4.95 68.84 9.75Q68.84 10.65 68.32 11.18 67.8 11.7 66.95 11.7ZM78.84-3.25L78.84-3.25Q81.75-3.25 84.05-4.6 86.34-5.95 87.67-8.33 89-10.7 89-13.65L89-13.65Q89-16.65 87.67-19 86.34-21.35 84.05-22.73 81.75-24.1 78.84-24.1L78.84-24.1Q76-24.1 73.7-22.73 71.4-21.35 70.09-19 68.8-16.65 68.8-13.65L68.8-13.65Q68.8-10.7 70.09-8.33 71.4-5.95 73.7-4.6 76-3.25 78.84-3.25ZM106.89 0L106.24 0Q104.24 0 102.67-1.1 101.09-2.2 100.22-4.15 99.34-6.1 99.34-8.65L99.34-8.65 99.34-37.15Q99.34-38 99.87-38.53 100.39-39.05 101.24-39.05L101.24-39.05Q102.09-39.05 102.62-38.53 103.14-38 103.14-37.15L103.14-37.15 103.14-8.65Q103.14-6.5 104.02-5.15 104.89-3.8 106.24-3.8L106.24-3.8 107.49-3.8Q108.24-3.8 108.69-3.28 109.14-2.75 109.14-1.9L109.14-1.9Q109.14-1.05 108.52-0.53 107.89 0 106.89 0L106.89 0ZM125.39 0.25L125.39 0.25Q121.39 0.25 118.24-1.55 115.09-3.35 113.29-6.5 111.49-9.65 111.49-13.65L111.49-13.65Q111.49-17.7 113.29-20.85 115.09-24 118.24-25.8 121.39-27.6 125.39-27.6L125.39-27.6Q129.39-27.6 132.51-25.8 135.64-24 137.44-20.85 139.24-17.7 139.29-13.65L139.29-13.65Q139.29-9.65 137.47-6.5 135.64-3.35 132.51-1.55 129.39 0.25 125.39 0.25ZM125.39-3.25L125.39-3.25Q128.29-3.25 130.59-4.6 132.89-5.95 134.19-8.3 135.49-10.65 135.49-13.65L135.49-13.65Q135.49-16.65 134.19-19.03 132.89-21.4 130.59-22.75 128.29-24.1 125.39-24.1L125.39-24.1Q122.49-24.1 120.19-22.75 117.89-21.4 116.56-19.03 115.24-16.65 115.24-13.65L115.24-13.65Q115.24-10.65 116.56-8.3 117.89-5.95 120.19-4.6 122.49-3.25 125.39-3.25ZM150.59-16.85L148.39-16.85Q148.54-19.95 150.01-22.4 151.49-24.85 153.86-26.25 156.24-27.65 159.14-27.65L159.14-27.65Q161.44-27.65 162.69-27 163.94-26.35 163.64-25.1L163.64-25.1Q163.44-24.35 162.96-24.1 162.49-23.85 161.81-23.9 161.14-23.95 160.29-24L160.29-24Q157.49-24.25 155.31-23.43 153.14-22.6 151.86-20.9 150.59-19.2 150.59-16.85L150.59-16.85ZM148.69 0L148.69 0Q147.79 0 147.29-0.5 146.79-1 146.79-1.9L146.79-1.9 146.79-25.45Q146.79-26.35 147.29-26.85 147.79-27.35 148.69-27.35L148.69-27.35Q149.59-27.35 150.09-26.85 150.59-26.35 150.59-25.45L150.59-25.45 150.59-1.9Q150.59-1 150.09-0.5 149.59 0 148.69 0ZM180.09 0.25L180.09 0.25Q176.03 0.25 172.91-1.53 169.78-3.3 168.01-6.45 166.24-9.6 166.24-13.65L166.24-13.65Q166.24-17.75 167.91-20.88 169.59-24 172.53-25.8 175.49-27.6 179.34-27.6L179.34-27.6Q183.13-27.6 185.96-25.88 188.78-24.15 190.34-21.1 191.88-18.05 191.88-14.15L191.88-14.15Q191.88-13.35 191.38-12.88 190.88-12.4 190.09-12.4L190.09-12.4 168.84-12.4 168.84-15.6 190.49-15.6 188.34-14.05Q188.38-16.95 187.28-19.25 186.19-21.55 184.16-22.85 182.13-24.15 179.34-24.15L179.34-24.15Q176.49-24.15 174.34-22.8 172.19-21.45 171.01-19.07 169.84-16.7 169.84-13.65L169.84-13.65Q169.84-10.6 171.16-8.25 172.49-5.9 174.78-4.55 177.09-3.2 180.09-3.2L180.09-3.2Q181.88-3.2 183.71-3.83 185.53-4.45 186.63-5.4L186.63-5.4Q187.19-5.85 187.88-5.88 188.59-5.9 189.09-5.5L189.09-5.5Q189.74-4.9 189.76-4.2 189.78-3.5 189.19-3L189.19-3Q187.53-1.6 184.99-0.68 182.44 0.25 180.09 0.25ZM224.88 0L224.88 0Q224.08 0 223.5-0.58 222.93-1.15 222.93-1.95L222.93-1.95 222.93-39.05 226.83-39.05 226.83-1.95Q226.83-1.15 226.28-0.58 225.73 0 224.88 0ZM238.73-35.5L211.08-35.5Q210.28-35.5 209.78-36 209.28-36.5 209.28-37.25L209.28-37.25Q209.28-38.05 209.78-38.55 210.28-39.05 211.08-39.05L211.08-39.05 238.73-39.05Q239.53-39.05 240.03-38.55 240.53-38.05 240.53-37.25L240.53-37.25Q240.53-36.5 240.03-36 239.53-35.5 238.73-35.5L238.73-35.5ZM269.23 0L269.23 0Q268.38 0 267.83-0.55 267.28-1.1 267.28-1.9L267.28-1.9 267.28-14.9Q267.28-18 266.1-20 264.93-22 262.9-23 260.88-24 258.33-24L258.33-24Q255.88-24 253.9-23.05 251.93-22.1 250.78-20.45 249.63-18.8 249.63-16.7L249.63-16.7 246.88-16.7Q246.98-19.85 248.58-22.33 250.18-24.8 252.83-26.23 255.48-27.65 258.73-27.65L258.73-27.65Q262.28-27.65 265.08-26.18 267.88-24.7 269.5-21.85 271.13-19 271.13-14.9L271.13-14.9 271.13-1.9Q271.13-1.1 270.58-0.55 270.03 0 269.23 0ZM247.73 0L247.73 0Q246.83 0 246.3-0.53 245.78-1.05 245.78-1.9L245.78-1.9 245.78-25.4Q245.78-26.3 246.3-26.83 246.83-27.35 247.73-27.35L247.73-27.35Q248.58-27.35 249.1-26.83 249.63-26.3 249.63-25.4L249.63-25.4 249.63-1.9Q249.63-1.05 249.1-0.53 248.58 0 247.73 0ZM247.73-11.15L247.73-11.15Q246.83-11.15 246.3-11.7 245.78-12.25 245.78-13.1L245.78-13.1 245.78-37.1Q245.78-38 246.3-38.53 246.83-39.05 247.73-39.05L247.73-39.05Q248.58-39.05 249.1-38.53 249.63-38 249.63-37.1L249.63-37.1 249.63-13.1Q249.63-12.25 249.1-11.7 248.58-11.15 247.73-11.15ZM292.02 0.25L292.02 0.25Q287.98 0.25 284.85-1.53 281.73-3.3 279.95-6.45 278.18-9.6 278.18-13.65L278.18-13.65Q278.18-17.75 279.85-20.88 281.52-24 284.48-25.8 287.43-27.6 291.27-27.6L291.27-27.6Q295.07-27.6 297.9-25.88 300.73-24.15 302.27-21.1 303.82-18.05 303.82-14.15L303.82-14.15Q303.82-13.35 303.32-12.88 302.82-12.4 302.02-12.4L302.02-12.4 280.77-12.4 280.77-15.6 302.43-15.6 300.27-14.05Q300.32-16.95 299.23-19.25 298.13-21.55 296.1-22.85 294.07-24.15 291.27-24.15L291.27-24.15Q288.43-24.15 286.27-22.8 284.13-21.45 282.95-19.07 281.77-16.7 281.77-13.65L281.77-13.65Q281.77-10.6 283.1-8.25 284.43-5.9 286.73-4.55 289.02-3.2 292.02-3.2L292.02-3.2Q293.82-3.2 295.65-3.83 297.48-4.45 298.57-5.4L298.57-5.4Q299.13-5.85 299.82-5.88 300.52-5.9 301.02-5.5L301.02-5.5Q301.68-4.9 301.7-4.2 301.73-3.5 301.13-3L301.13-3Q299.48-1.6 296.93-0.68 294.38 0.25 292.02 0.25ZM333.82 0L333.82 0Q333.12 0 332.59-0.45 332.07-0.9 331.87-1.6L331.87-1.6 321.62-36.25Q321.27-37.45 321.74-38.25 322.22-39.05 323.27-39.05L323.27-39.05Q323.87-39.05 324.39-38.73 324.92-38.4 325.17-37.55L325.17-37.55 334.42-5.35 333.27-5.35 342.02-36.7Q342.17-37.25 342.69-37.6 343.22-37.95 343.87-37.95L343.87-37.95Q344.47-37.95 345.02-37.63 345.57-37.3 345.72-36.65L345.72-36.65 354.52-5.35 353.37-5.35 362.67-37.75Q363.02-39.05 364.57-39.05L364.57-39.05Q365.62-39.05 366.02-38.23 366.42-37.4 366.12-36.25L366.12-36.25 355.92-1.65Q355.67-0.85 355.14-0.43 354.62 0 353.92 0L353.92 0Q353.22 0 352.69-0.45 352.17-0.9 351.97-1.6L351.97-1.6 343.27-33.35 344.47-33.35 335.82-1.65Q335.57-0.9 335.04-0.45 334.52 0 333.82 0ZM378.82 0.25L378.82 0.25Q374.82 0.25 371.67-1.55 368.52-3.35 366.72-6.5 364.92-9.65 364.92-13.65L364.92-13.65Q364.92-17.7 366.72-20.85 368.52-24 371.67-25.8 374.82-27.6 378.82-27.6L378.82-27.6Q382.82-27.6 385.94-25.8 389.07-24 390.87-20.85 392.67-17.7 392.72-13.65L392.72-13.65Q392.72-9.65 390.89-6.5 389.07-3.35 385.94-1.55 382.82 0.25 378.82 0.25ZM378.82-3.25L378.82-3.25Q381.72-3.25 384.02-4.6 386.32-5.95 387.62-8.3 388.92-10.65 388.92-13.65L388.92-13.65Q388.92-16.65 387.62-19.03 386.32-21.4 384.02-22.75 381.72-24.1 378.82-24.1L378.82-24.1Q375.92-24.1 373.62-22.75 371.32-21.4 369.99-19.03 368.67-16.65 368.67-13.65L368.67-13.65Q368.67-10.65 369.99-8.3 371.32-5.95 373.62-4.6 375.92-3.25 378.82-3.25ZM404.02-16.85L401.82-16.85Q401.97-19.95 403.44-22.4 404.92-24.85 407.29-26.25 409.67-27.65 412.57-27.65L412.57-27.65Q414.87-27.65 416.12-27 417.37-26.35 417.07-25.1L417.07-25.1Q416.87-24.35 416.39-24.1 415.92-23.85 415.24-23.9 414.57-23.95 413.72-24L413.72-24Q410.92-24.25 408.74-23.43 406.57-22.6 405.29-20.9 404.02-19.2 404.02-16.85L404.02-16.85ZM402.12 0L402.12 0Q401.22 0 400.72-0.5 400.22-1 400.22-1.9L400.22-1.9 400.22-25.45Q400.22-26.35 400.72-26.85 401.22-27.35 402.12-27.35L402.12-27.35Q403.02-27.35 403.52-26.85 404.02-26.35 404.02-25.45L404.02-25.45 404.02-1.9Q404.02-1 403.52-0.5 403.02 0 402.12 0ZM429.66 0L429.01 0Q427.01 0 425.44-1.1 423.86-2.2 422.99-4.15 422.11-6.1 422.11-8.65L422.11-8.65 422.11-37.15Q422.11-38 422.64-38.53 423.16-39.05 424.01-39.05L424.01-39.05Q424.86-39.05 425.39-38.53 425.91-38 425.91-37.15L425.91-37.15 425.91-8.65Q425.91-6.5 426.79-5.15 427.66-3.8 429.01-3.8L429.01-3.8 430.26-3.8Q431.01-3.8 431.46-3.28 431.91-2.75 431.91-1.9L431.91-1.9Q431.91-1.05 431.29-0.53 430.66 0 429.66 0L429.66 0ZM448.16 0.25L448.16 0.25Q444.21 0.25 441.06-1.58 437.91-3.4 436.09-6.55 434.26-9.7 434.26-13.7L434.26-13.7Q434.26-17.65 436.04-20.8 437.81-23.95 440.86-25.78 443.91-27.6 447.76-27.6L447.76-27.6Q451.11-27.6 453.81-26.18 456.51-24.75 458.16-22.4L458.16-22.4 458.16-37.1Q458.16-38 458.71-38.53 459.26-39.05 460.11-39.05L460.11-39.05Q460.96-39.05 461.51-38.53 462.06-38 462.06-37.1L462.06-37.1 462.06-13.5Q461.96-9.6 460.14-6.48 458.31-3.35 455.19-1.55 452.06 0.25 448.16 0.25ZM448.16-3.25L448.16-3.25Q451.06-3.25 453.34-4.63 455.61-6 456.94-8.35 458.26-10.7 458.26-13.7L458.26-13.7Q458.26-16.65 456.94-19.03 455.61-21.4 453.34-22.75 451.06-24.1 448.16-24.1L448.16-24.1Q445.31-24.1 443.01-22.75 440.71-21.4 439.36-19.03 438.01-16.65 438.01-13.7L438.01-13.7Q438.01-10.7 439.36-8.35 440.71-6 443.01-4.63 445.31-3.25 448.16-3.25ZM470.61 8.1L470.61 8.1Q470.11 8.1 469.83 7.83 469.56 7.55 469.56 7.1L469.56 7.1Q469.56 6.35 470.01 5.73 470.46 5.1 470.93 4.4 471.41 3.7 471.41 2.7L471.41 2.7Q471.41 1.8 471.06 1.2 470.71 0.6 470.23 0.13 469.76-0.35 469.41-0.93 469.06-1.5 469.06-2.35L469.06-2.35Q469.06-3.6 469.88-4.35 470.71-5.1 471.96-5.1L471.96-5.1Q473.46-5.1 474.41-3.93 475.36-2.75 475.36-0.65L475.36-0.65Q475.36 0.75 474.96 2.3 474.56 3.85 473.86 5.18 473.16 6.5 472.31 7.3 471.46 8.1 470.61 8.1ZM508.85 0L508.85 0Q508.05 0 507.48-0.58 506.9-1.15 506.9-1.95L506.9-1.95 506.9-39.05 510.8-39.05 510.8-1.95Q510.8-1.15 510.25-0.58 509.7 0 508.85 0ZM522.7-35.5L495.05-35.5Q494.25-35.5 493.75-36 493.25-36.5 493.25-37.25L493.25-37.25Q493.25-38.05 493.75-38.55 494.25-39.05 495.05-39.05L495.05-39.05 522.7-39.05Q523.5-39.05 524-38.55 524.5-38.05 524.5-37.25L524.5-37.25Q524.5-36.5 524-36 523.5-35.5 522.7-35.5L522.7-35.5ZM534.7 0.25L534.7 0.25Q530.7 0.25 527.55-1.55 524.4-3.35 522.6-6.5 520.8-9.65 520.8-13.65L520.8-13.65Q520.8-17.7 522.6-20.85 524.4-24 527.55-25.8 530.7-27.6 534.7-27.6L534.7-27.6Q538.7-27.6 541.83-25.8 544.95-24 546.75-20.85 548.55-17.7 548.6-13.65L548.6-13.65Q548.6-9.65 546.77-6.5 544.95-3.35 541.83-1.55 538.7 0.25 534.7 0.25ZM534.7-3.25L534.7-3.25Q537.6-3.25 539.9-4.6 542.2-5.95 543.5-8.3 544.8-10.65 544.8-13.65L544.8-13.65Q544.8-16.65 543.5-19.03 542.2-21.4 539.9-22.75 537.6-24.1 534.7-24.1L534.7-24.1Q531.8-24.1 529.5-22.75 527.2-21.4 525.88-19.03 524.55-16.65 524.55-13.65L524.55-13.65Q524.55-10.65 525.88-8.3 527.2-5.95 529.5-4.6 531.8-3.25 534.7-3.25ZM568.15 0.25L568.15 0.25Q564.2 0.25 561.15-1.53 558.1-3.3 556.37-6.45 554.65-9.6 554.65-13.65L554.65-13.65Q554.65-17.75 556.45-20.9 558.25-24.05 561.4-25.83 564.55-27.6 568.55-27.6L568.55-27.6Q572.6-27.6 575.72-25.83 578.85-24.05 580.62-20.9 582.4-17.75 582.45-13.65L582.45-13.65 580.2-12.45Q580.2-8.75 578.65-5.88 577.1-3 574.37-1.38 571.65 0.25 568.15 0.25ZM568.65 10.8L568.65 10.8Q564.7 10.8 561.7 9.33 558.7 7.85 556.75 5.3L556.75 5.3Q556.2 4.7 556.27 4 556.35 3.3 557 2.85L557 2.85Q557.65 2.4 558.45 2.55 559.25 2.7 559.7 3.3L559.7 3.3Q561.15 5.1 563.42 6.2 565.7 7.3 568.7 7.3L568.7 7.3Q571.5 7.3 573.75 5.95 576 4.6 577.32 2.15 578.65-0.3 578.65-3.6L578.65-3.6 578.65-11.2 580.1-14.1 582.45-13.65 582.45-3.45Q582.45 0.6 580.65 3.83 578.85 7.05 575.75 8.93 572.65 10.8 568.65 10.8ZM568.55-3.25L568.55-3.25Q571.5-3.25 573.77-4.58 576.05-5.9 577.35-8.25 578.65-10.6 578.65-13.65L578.65-13.65Q578.65-16.7 577.35-19.07 576.05-21.45 573.77-22.78 571.5-24.1 568.55-24.1L568.55-24.1Q565.6-24.1 563.3-22.78 561-21.45 559.7-19.07 558.4-16.7 558.4-13.65L558.4-13.65Q558.4-10.6 559.7-8.25 561-5.9 563.3-4.58 565.6-3.25 568.55-3.25ZM602.34 0.25L602.34 0.25Q598.29 0.25 595.17-1.53 592.04-3.3 590.27-6.45 588.49-9.6 588.49-13.65L588.49-13.65Q588.49-17.75 590.17-20.88 591.84-24 594.79-25.8 597.74-27.6 601.59-27.6L601.59-27.6Q605.39-27.6 608.22-25.88 611.04-24.15 612.59-21.1 614.14-18.05 614.14-14.15L614.14-14.15Q614.14-13.35 613.64-12.88 613.14-12.4 612.34-12.4L612.34-12.4 591.09-12.4 591.09-15.6 612.74-15.6 610.59-14.05Q610.64-16.95 609.54-19.25 608.44-21.55 606.42-22.85 604.39-24.15 601.59-24.15L601.59-24.15Q598.74-24.15 596.59-22.8 594.44-21.45 593.27-19.07 592.09-16.7 592.09-13.65L592.09-13.65Q592.09-10.6 593.42-8.25 594.74-5.9 597.04-4.55 599.34-3.2 602.34-3.2L602.34-3.2Q604.14-3.2 605.97-3.83 607.79-4.45 608.89-5.4L608.89-5.4Q609.44-5.85 610.14-5.88 610.84-5.9 611.34-5.5L611.34-5.5Q611.99-4.9 612.02-4.2 612.04-3.5 611.44-3L611.44-3Q609.79-1.6 607.24-0.68 604.69 0.25 602.34 0.25ZM632.39 0L631.34 0Q628.69 0 626.62-1.25 624.54-2.5 623.34-4.67 622.14-6.85 622.14-9.65L622.14-9.65 622.14-34.1Q622.14-34.95 622.67-35.5 623.19-36.05 624.04-36.05L624.04-36.05Q624.89-36.05 625.44-35.5 625.99-34.95 625.99-34.1L625.99-34.1 625.99-9.65Q625.99-7.1 627.49-5.48 628.99-3.85 631.34-3.85L631.34-3.85 632.69-3.85Q633.49-3.85 633.99-3.3 634.49-2.75 634.49-1.9L634.49-1.9Q634.49-1.05 633.89-0.53 633.29 0 632.39 0L632.39 0ZM631.64-23L618.89-23Q618.14-23 617.64-23.48 617.14-23.95 617.14-24.65L617.14-24.65Q617.14-25.4 617.64-25.88 618.14-26.35 618.89-26.35L618.89-26.35 631.64-26.35Q632.39-26.35 632.89-25.88 633.39-25.4 633.39-24.65L633.39-24.65Q633.39-23.95 632.89-23.48 632.39-23 631.64-23L631.64-23ZM664.19 0L664.19 0Q663.34 0 662.79-0.55 662.24-1.1 662.24-1.9L662.24-1.9 662.24-14.9Q662.24-18 661.06-20 659.89-22 657.86-23 655.84-24 653.29-24L653.29-24Q650.84-24 648.86-23.05 646.89-22.1 645.74-20.45 644.59-18.8 644.59-16.7L644.59-16.7 641.84-16.7Q641.94-19.85 643.54-22.33 645.14-24.8 647.79-26.23 650.44-27.65 653.69-27.65L653.69-27.65Q657.24-27.65 660.04-26.18 662.84-24.7 664.46-21.85 666.09-19 666.09-14.9L666.09-14.9 666.09-1.9Q666.09-1.1 665.54-0.55 664.99 0 664.19 0ZM642.69 0L642.69 0Q641.79 0 641.26-0.53 640.74-1.05 640.74-1.9L640.74-1.9 640.74-25.4Q640.74-26.3 641.26-26.83 641.79-27.35 642.69-27.35L642.69-27.35Q643.54-27.35 644.06-26.83 644.59-26.3 644.59-25.4L644.59-25.4 644.59-1.9Q644.59-1.05 644.06-0.53 643.54 0 642.69 0ZM642.69-11.15L642.69-11.15Q641.79-11.15 641.26-11.7 640.74-12.25 640.74-13.1L640.74-13.1 640.74-37.1Q640.74-38 641.26-38.53 641.79-39.05 642.69-39.05L642.69-39.05Q643.54-39.05 644.06-38.53 644.59-38 644.59-37.1L644.59-37.1 644.59-13.1Q644.59-12.25 644.06-11.7 643.54-11.15 642.69-11.15ZM686.99 0.25L686.99 0.25Q682.94 0.25 679.81-1.53 676.69-3.3 674.91-6.45 673.14-9.6 673.14-13.65L673.14-13.65Q673.14-17.75 674.81-20.88 676.49-24 679.44-25.8 682.39-27.6 686.24-27.6L686.24-27.6Q690.04-27.6 692.86-25.88 695.69-24.15 697.24-21.1 698.79-18.05 698.79-14.15L698.79-14.15Q698.79-13.35 698.29-12.88 697.79-12.4 696.99-12.4L696.99-12.4 675.74-12.4 675.74-15.6 697.39-15.6 695.24-14.05Q695.29-16.95 694.19-19.25 693.09-21.55 691.06-22.85 689.04-24.15 686.24-24.15L686.24-24.15Q683.39-24.15 681.24-22.8 679.09-21.45 677.91-19.07 676.74-16.7 676.74-13.65L676.74-13.65Q676.74-10.6 678.06-8.25 679.39-5.9 681.69-4.55 683.99-3.2 686.99-3.2L686.99-3.2Q688.79-3.2 690.61-3.83 692.44-4.45 693.54-5.4L693.54-5.4Q694.09-5.85 694.79-5.88 695.49-5.9 695.99-5.5L695.99-5.5Q696.64-4.9 696.66-4.2 696.69-3.5 696.09-3L696.09-3Q694.44-1.6 691.89-0.68 689.34 0.25 686.99 0.25ZM709.08-16.85L706.88-16.85Q707.03-19.95 708.51-22.4 709.98-24.85 712.36-26.25 714.73-27.65 717.63-27.65L717.63-27.65Q719.93-27.65 721.18-27 722.43-26.35 722.13-25.1L722.13-25.1Q721.93-24.35 721.46-24.1 720.98-23.85 720.31-23.9 719.63-23.95 718.78-24L718.78-24Q715.98-24.25 713.81-23.43 711.63-22.6 710.36-20.9 709.08-19.2 709.08-16.85L709.08-16.85ZM707.18 0L707.18 0Q706.28 0 705.78-0.5 705.28-1 705.28-1.9L705.28-1.9 705.28-25.45Q705.28-26.35 705.78-26.85 706.28-27.35 707.18-27.35L707.18-27.35Q708.08-27.35 708.58-26.85 709.08-26.35 709.08-25.45L709.08-25.45 709.08-1.9Q709.08-1 708.58-0.5 708.08 0 707.18 0Z" opacity="1" transform="matrix(1,0,0,1,0,0)" fill="white" class="slogan-text-1" id="SvgjsPath1808"></path></svg></g></svg></g></svg></g></svg></g><g transform="matrix(1,0,0,1,83.79697070609028,0)"><svg viewBox="0 0 229.90365858781936 196.8662484021946" height="196.8662484021946" width="229.90365858781936"><g><svg xmlns="http://www.w3.org/2000/svg" xmlns:xlink="http://www.w3.org/1999/xlink" version="1.1" x="8" y="0" viewBox="7.261847019195557 10.2673921585083 75.47628784179688 69.46460723876953" enable-background="new 0 0 90 90" xml:space="preserve" height="196.8662484021946" width="213.90365858781936" class="icon-icon-0" data-fill-palette-color="accent" id="SvgjsSvg1807"></svg></g></svg></g><g></g></svg></g><defs><mask></mask></defs></svg></g></mask><linearGradient x1="0" x2="1" y1="0.5" y2="0.5" id="3c6a9940-7089-4047-b531-b0b25b1dceb2"><stop stop-color="#ffa62e" offset="0"></stop><stop stop-color="#f71b3d" offset="1"></stop></linearGradient><rect width="251.05718994140625" height="247.1999969482422" fill="url(#3c6a9940-7089-4047-b531-b0b25b1dceb2)" mask="url(#7dd348d9-d333-410d-87e2-64f31eb6f847)" data-fill-palette-color="secondary"></rect><mask id="8876069a-4580-4840-867f-35188e90c72e"><g id="SvgjsG1824"><svg viewBox="0 0 251.057190944295 247.2" height="247.2" width="251.057190944295"><g><svg viewBox="0 0 397.4975999999999 391.39052878912514" height="247.2" width="251.057190944295"><g></g><g transform="matrix(1,0,0,1,0.9887999999999693,248.94027668912904)"><svg viewBox="0 0 395.52 142.45025209999608" height="142.45025209999608" width="395.52"><g id="SvgjsG1823"><svg viewBox="0 0 395.52 142.45025209999608" height="142.45025209999608" width="395.52" id="SvgjsSvg1822"><g><svg viewBox="0 0 395.52 92.60353798126951" height="92.60353798126951" width="395.52"><g transform="matrix(1,0,0,1,0,0)"><svg width="395.52" viewBox="2.1500000953674316 -33.25 144.13999938964844 33.75" height="92.60353798126951" data-palette-color="#f5793b"></svg></g></svg></g><g transform="matrix(1,0,0,1,0,114.46501081373569)"><svg viewBox="0 0 395.52 27.985241286260404" height="27.985241286260404" width="395.52"><g transform="matrix(1,0,0,1,0,0)"><svg width="395.52" viewBox="5 -39.04999923706055 717.1880493164062 50.75" height="27.985241286260404" data-palette-color="url(#3c6a9940-7089-4047-b531-b0b25b1dceb2)"></svg></g></svg></g></svg></g></svg></g><g transform="matrix(1,0,0,1,83.79697070609028,0)"><svg viewBox="0 0 229.90365858781936 196.8662484021946" height="196.8662484021946" width="229.90365858781936"><g><svg xmlns="http://www.w3.org/2000/svg" xmlns:xlink="http://www.w3.org/1999/xlink" version="1.1" x="8" y="0" viewBox="7.261847019195557 10.2673921585083 75.47628784179688 69.46460723876953" enable-background="new 0 0 90 90" xml:space="preserve" height="196.8662484021946" width="213.90365858781936" class="icon-icon-0" data-fill-palette-color="accent" id="SvgjsSvg1820"><g fill="white"><g fill="white"><path d="M18.757 62.107l27.438 5.619c0.062 0.013 0.125 0.019 0.188 0.019 0.214 0 0.424-0.073 0.592-0.211 0.219-0.178 0.345-0.444 0.345-0.726V11.204c0-0.428-0.29-0.801-0.704-0.907-0.412-0.107-0.847 0.083-1.054 0.457L18.123 60.739C17.98 61 17.97 61.313 18.095 61.583 18.22 61.853 18.465 62.048 18.757 62.107z" fill="white"></path><path d="M51.108 67.746c0.085 0 0.17-0.012 0.254-0.035l19.947-5.619c0.263-0.074 0.479-0.258 0.595-0.505 0.115-0.247 0.117-0.532 0.006-0.781L51.963 16.438c-0.181-0.402-0.619-0.624-1.051-0.531-0.432 0.092-0.74 0.474-0.74 0.916v49.986c0 0.293 0.138 0.57 0.371 0.747C50.708 67.68 50.906 67.746 51.108 67.746z" fill="white"></path><path d="M82.68 71.654c-0.134-0.358-0.472-0.6-0.854-0.609L8.222 69.171c-0.436-0.018-0.809 0.27-0.925 0.681-0.116 0.412 0.062 0.851 0.432 1.065l14.984 8.689c0.143 0.083 0.305 0.126 0.47 0.126h51.125c0.233 0 0.458-0.087 0.63-0.244l7.494-6.816C82.715 72.416 82.812 72.012 82.68 71.654z" fill="white"></path></g></g></svg></g></svg></g><g></g></svg></g><defs><mask></mask></defs><mask><g id="SvgjsG1819"><svg viewBox="0 0 251.057190944295 247.2" height="247.2" width="251.057190944295"><g><svg viewBox="0 0 397.4975999999999 391.39052878912514" height="247.2" width="251.057190944295"><g></g><g transform="matrix(1,0,0,1,0.9887999999999693,248.94027668912904)"><svg viewBox="0 0 395.52 142.45025209999608" height="142.45025209999608" width="395.52"><g id="SvgjsG1817"><svg viewBox="0 0 395.52 142.45025209999608" height="142.45025209999608" width="395.52" id="SvgjsSvg1816"><g><svg viewBox="0 0 395.52 92.60353798126951" height="92.60353798126951" width="395.52"><g transform="matrix(1,0,0,1,0,0)"><svg width="395.52" viewBox="2.1500000953674316 -33.25 144.13999938964844 33.75" height="92.60353798126951" data-palette-color="#f5793b"></svg></g></svg></g><g transform="matrix(1,0,0,1,0,114.46501081373569)"><svg viewBox="0 0 395.52 27.985241286260404" height="27.985241286260404" width="395.52"><g transform="matrix(1,0,0,1,0,0)"><svg width="395.52" viewBox="5 -39.04999923706055 717.1880493164062 50.75" height="27.985241286260404" data-palette-color="url(#3c6a9940-7089-4047-b531-b0b25b1dceb2)"></svg></g></svg></g></svg></g></svg></g><g transform="matrix(1,0,0,1,83.79697070609028,0)"><svg viewBox="0 0 229.90365858781936 196.8662484021946" height="196.8662484021946" width="229.90365858781936"><g><svg xmlns="http://www.w3.org/2000/svg" xmlns:xlink="http://www.w3.org/1999/xlink" version="1.1" x="8" y="0" viewBox="7.261847019195557 10.2673921585083 75.47628784179688 69.46460723876953" enable-background="new 0 0 90 90" xml:space="preserve" height="196.8662484021946" width="213.90365858781936" class="icon-icon-0" data-fill-palette-color="accent" id="SvgjsSvg1814"></svg></g></svg></g><g></g></svg></g><defs><mask></mask></defs></svg></g></mask></svg></g></mask><linearGradient x1="0" x2="1" y1="0.5" y2="0.5" id="7122eb48-0b99-4d65-bca3-ea275c5a46be"><stop stop-color="#ffa62e" offset="0"></stop><stop stop-color="#f71b3d" offset="1"></stop></linearGradient><rect width="251.05718994140625" height="247.1999969482422" fill="url(#7122eb48-0b99-4d65-bca3-ea275c5a46be)" mask="url(#8876069a-4580-4840-867f-35188e90c72e)" data-fill-palette-color="accent"></rect></svg><rect width="251.057190944295" height="247.2" fill="none" stroke="none" visibility="hidden"></rect></g></svg></g></svg>